<?xml version="1.0" standalone="no"?><!DOCTYPE svg PUBLIC "-//W3C//DTD SVG 1.1//EN" "http://www.w3.org/Graphics/SVG/1.1/DTD/svg11.dtd"><svg class="icon" height="512" viewBox="0 0 1024 1024" version="1.1" xmlns="http://www.w3.org/2000/svg"><path d="M429.164289 315.875h66.5L291.289289 455.25l-89.375-65.375v-63.75l89.375 65.375 137.875-75.625zM291.289289 599.375l-89.375-65.375v63.75l89.375 65.375L495.664289 523.75h-66.5l-137.875 75.625z m0 208l-89.375-65.375v63.75l89.375 65.375 204.375-139.375h-66.5l-137.875 75.625z m266.625 19.75h236.25v-78.75h-236.25v78.75z m0-197h236.25v-78.75h-236.25v78.75z m0-196.875h236.25v-78.75h-236.25v78.75zM951.789289 288.75v680.125c0 26.75-20.5 48.875-47.625 54-2.75 0.75-5.875 1.125-9 1.125H105.414289c-4 0-7.875-0.375-11.875-1.125-27.125-5.125-47.625-27.625-47.625-54v-913.75c0-4 0.375-7.5 1.125-11C52.664289 18.875 76.664289 0 105.414289 0H635.914289c6.75 0 13 2.375 18.125 5.875 2 0.75 4 2.375 5.5 3.5C661.914289 11 936.414289 257.5 936.414289 257.5l1.625 1.625c9.75 8.75 14.5 19.75 13.75 29.625z m-276.125-39h172.5l-172.125-153.75-0.375 153.75z m200.875 68.125H669.414289s-7.875-0.375-11.375-1.125c-27.125-5.125-47.625-27.125-47.625-54V79.5l-483.75-0.375v865.625h749.875V317.875z" fill="" /></svg>